<?xml version="1.0" encoding="UTF-8"?>
<svg width="598px" height="366px" viewBox="0 0 598 366" version="1.1" xmlns="http://www.w3.org/2000/svg" xmlns:xlink="http://www.w3.org/1999/xlink">
    <defs>
        <path d="M283.004001,100.994331 L282.995999,100.994331 C275.269423,100.994331 269.001334,94.725167 269.001334,86.9964988 C269.001334,79.2708316 275.269423,72.9976659 282.995999,72.9976659 L283.004001,72.9976659 C290.730577,73.0016672 296.994665,79.2708316 296.994665,86.9964988 C296.994665,94.725167 290.730577,100.994331 283.004001,100.994331 L283.004001,100.994331 Z M311.001334,72.9976659 L311.001334,58.9998333 L297.002668,58.9998333 L297.002668,45 L283.004001,45 L269.001334,45 L269.001334,58.9998333 L254.998666,58.9998333 L254.998666,72.9976659 L241,72.9976659 L241,86.9964988 L241,100.998333 L254.998666,100.998333 L254.998666,114.993164 L269.001334,114.993164 L269.001334,129 L283.004001,129 L297.002668,129 L297.002668,114.993164 L311.001334,114.993164 L311.001334,100.998333 L325,100.998333 L325,86.9964988 L325,72.9976659 L311.001334,72.9976659 Z" id="path-1"></path>
        <filter x="-8.3%" y="-6.0%" width="116.7%" height="116.7%" filterUnits="objectBoundingBox" id="filter-2">
            <feOffset dx="0" dy="2" in="SourceAlpha" result="shadowOffsetOuter1"></feOffset>
            <feGaussianBlur stdDeviation="2" in="shadowOffsetOuter1" result="shadowBlurOuter1"></feGaussianBlur>
            <feColorMatrix values="0 0 0 0 0   0 0 0 0 0   0 0 0 0 0  0 0 0 0.5 0" type="matrix" in="shadowBlurOuter1"></feColorMatrix>
        </filter>
        <path d="M226.054917,10.4247091 C226.054917,10.4247091 227.323434,68.6183938 233.084451,125.195309 C233.084451,125.195309 260.960021,143.971242 269.083105,148.749515 C269.083105,148.749515 271.873644,169.845551 273,232.215222 L250.190547,243.451568 C250.190547,243.451568 257.427856,314.726476 260.808912,354.938606 C260.808912,354.938606 258.944907,357.326742 248.786827,354.938606 C248.786827,354.938606 232.778257,290.305858 228.037223,231.01165 C228.037223,231.01165 239.64376,222.73071 256.913888,215.672352 C256.913888,215.672352 251.833853,178.939878 251.833853,168.716014 C251.833853,168.716014 224.777452,151.105636 209.724247,139.53313 C209.724247,139.53313 200.274986,104.646534 194,10.4247091 C194,10.4247091 207.569954,4.96911366 226.054917,10.4247091" id="path-3"></path>
        <filter x="-8.9%" y="-1.4%" width="117.7%" height="104.0%" filterUnits="objectBoundingBox" id="filter-4">
            <feOffset dx="0" dy="2" in="SourceAlpha" result="shadowOffsetOuter1"></feOffset>
            <feGaussianBlur stdDeviation="2" in="shadowOffsetOuter1" result="shadowBlurOuter1"></feGaussianBlur>
            <feColorMatrix values="0 0 0 0 0   0 0 0 0 0   0 0 0 0 0  0 0 0 0.5 0" type="matrix" in="shadowBlurOuter1"></feColorMatrix>
        </filter>
        <path d="M339.946697,10.4247091 C339.946697,10.4247091 338.68222,68.6183938 332.922486,125.195309 C332.922486,125.195309 305.051302,143.971242 296.916698,148.749515 C296.916698,148.749515 294.135246,169.845551 293,232.215222 L315.821228,243.451568 C315.821228,243.451568 308.583289,314.726476 305.193457,354.938606 C305.193457,354.938606 307.058362,357.326742 317.215931,354.938606 C317.215931,354.938606 333.223694,290.305858 337.968466,231.01165 C337.968466,231.01165 326.362514,222.73071 309.094249,215.672352 C309.094249,215.672352 314.17204,178.939878 314.17204,168.716014 C314.17204,168.716014 341.228073,151.105636 356.276545,139.53313 C356.276545,139.53313 365.724336,104.646534 372,10.4247091 C372,10.4247091 358.434705,4.96911366 339.946697,10.4247091" id="path-5"></path>
        <filter x="-8.9%" y="-1.4%" width="117.7%" height="104.0%" filterUnits="objectBoundingBox" id="filter-6">
            <feOffset dx="0" dy="2" in="SourceAlpha" result="shadowOffsetOuter1"></feOffset>
            <feGaussianBlur stdDeviation="2" in="shadowOffsetOuter1" result="shadowBlurOuter1"></feGaussianBlur>
            <feColorMatrix values="0 0 0 0 0   0 0 0 0 0   0 0 0 0 0  0 0 0 0.5 0" type="matrix" in="shadowBlurOuter1"></feColorMatrix>
        </filter>
        <path d="M587,220.563765 L329.086371,220.563765 L338.181472,226 L587,226 L587,220.563765 Z M587,157 L341.225178,157 L332.938532,162.439257 L587,162.439257 L587,157 Z M235.345805,220.563765 L11.032018,220.563765 L11.032018,226 L226.607905,226 L235.345805,220.563765 Z M224.74386,157 L11.032018,157 L11.032018,162.439257 L232.414161,162.439257 L224.74386,157 Z M564.186207,213.231847 L564.186207,170.540729 L570.660838,170.540729 L570.660838,207.750285 L586.954975,207.750285 L586.954975,213.231847 L564.186207,213.231847 Z M539.153169,183.30586 L534.671656,195.093939 L543.948858,195.093939 L539.153169,183.30586 Z M550.803702,213.231847 L545.951982,200.636945 L533.049747,200.636945 L528.197025,213.231847 L521.344183,213.231847 L539.366289,168.585618 L557.659547,213.231847 L550.803702,213.231847 Z M500.406441,176.138127 L494.0919,176.138127 L494.0919,190.312429 L500.461472,190.312429 C507.637496,190.312429 509.472525,186.240037 509.472525,182.813305 C509.472525,179.345275 507.855619,176.138127 500.406441,176.138127 L500.406441,176.138127 Z M510.932344,213.231847 L494.0919,194.337479 L494.0919,213.231847 L487.622273,213.231847 L487.622273,170.540729 L502.024349,170.540729 C509.472525,170.540729 515.948157,174.396558 515.948157,182.656171 C515.948157,189.93571 511.090433,195.151353 503.050924,195.151353 L519.722273,213.231847 L510.932344,213.231847 Z M469.167924,176.138127 L469.167924,213.231847 L462.690292,213.231847 L462.690292,176.138127 L450.765605,176.138127 L450.765605,170.540729 L481.088609,170.540729 L481.088609,176.138127 L469.167924,176.138127 Z M433.984194,213.723395 C430.046986,213.723395 426.317895,213.128098 421.358114,209.325655 L424.86408,204.758693 C428.802288,207.69287 431.232651,208.131033 434.521496,208.131033 C438.463706,208.131033 441.00213,206.014759 441.00213,202.315056 C441.00213,199.491679 438.893947,197.209206 437.330071,196.39231 L429.663772,192.378339 C424.97114,189.93571 421.948445,186.673163 421.948445,181.022379 C421.948445,174.293816 427.291441,169.887011 434.685588,169.887011 C439.27216,169.887011 441.699521,170.647499 445.748791,173.305685 L442.618036,178.092231 C440.565885,176.194534 437.601223,175.268853 434.685588,175.268853 C431.287682,175.268853 428.372047,176.897609 428.372047,180.646667 C428.372047,184.991022 431.605861,186.405229 433.011649,187.111325 L440.134643,190.745555 C443.915764,192.704695 447.472758,196.122361 447.472758,201.778182 C447.472758,207.915477 443.104308,213.723395 433.984194,213.723395 L433.984194,213.723395 Z M396.751315,213.839231 C384.453419,213.839231 378.511087,205.304633 378.511087,195.911842 L378.511087,170.540729 L384.986718,170.540729 L384.986718,193.948673 C384.986718,202.860997 389.62632,208.024262 396.807347,208.024262 C403.98137,208.024262 408.135699,202.860997 408.135699,193.948673 L408.135699,170.540729 L414.612331,170.540729 L414.612331,195.911842 C414.612331,204.758693 409.056216,213.839231 396.751315,213.839231 L396.751315,213.839231 Z M356.556776,183.30586 L352.072261,195.093939 L361.352465,195.093939 L356.556776,183.30586 Z M368.20931,213.231847 L363.352587,200.636945 L350.455354,200.636945 L345.601633,213.231847 L338.744787,213.231847 L356.769895,168.585618 L375.059151,213.231847 L368.20931,213.231847 Z M206.274503,175.810765 C197.967845,175.810765 191.276092,182.597749 191.276092,192.046948 C191.276092,200.739686 197.967845,208.350618 206.274503,208.350618 C214.422072,208.350618 221.225887,200.739686 221.225887,192.046948 C221.225887,182.597749 214.422072,175.810765 206.274503,175.810765 L206.274503,175.810765 Z M206.274503,214.108172 C193.973605,214.108172 184.529309,204.543137 184.529309,192.046948 C184.529309,179.618245 193.973605,170.048174 206.274503,170.048174 C218.527374,170.048174 227.967668,179.618245 227.967668,192.046948 C227.967668,204.543137 218.527374,214.108172 206.274503,214.108172 L206.274503,214.108172 Z M155.125821,213.938951 C142.442708,213.938951 133.433656,204.977271 133.433656,191.890821 C133.433656,179.345275 143.091072,170.159981 155.55306,170.159981 C162.735088,170.159981 167.858961,172.763773 172.014291,176.679031 L167.751901,181.080801 C165.59269,178.844661 161.543419,175.863143 155.125821,175.863143 C146.112766,175.863143 139.958315,182.763948 139.958315,191.890821 C139.958315,201.778182 147.300432,208.296225 155.610092,208.296225 C160.628906,208.296225 166.886415,205.845537 168.450292,199.276123 L155.228878,199.276123 L155.228878,194.063502 L175.307138,194.063502 C175.250106,206.341114 165.863842,213.938951 155.125821,213.938951 L155.125821,213.938951 Z M98.7872279,213.293291 L98.7872279,170.598143 L123.287967,170.598143 L123.287967,176.138127 L105.265861,176.138127 L105.265861,188.682666 L122.585573,188.682666 L122.585573,194.221643 L105.265861,194.221643 L105.265861,207.750285 L124.691754,207.750285 L124.691754,213.293291 L98.7872279,213.293291 Z M64.6901075,213.839231 C52.388209,213.839231 46.4518801,205.304633 46.4518801,195.911842 L46.4518801,170.540729 L52.9225086,170.540729 L52.9225086,193.948673 C52.9225086,202.860997 57.5661126,208.024262 64.739135,208.024262 C71.9171601,208.024262 76.0724903,202.860997 76.0724903,193.948673 L76.0724903,170.540729 L82.5521238,170.540729 L82.5521238,195.911842 C82.5521238,204.758693 76.9920059,213.839231 64.6901075,213.839231 L64.6901075,213.839231 Z M17.4796335,176.138127 L17.4796335,188.682666 L34.7983453,188.682666 L34.7983453,194.221643 L17.4796335,194.221643 L17.4796335,213.231847 L11,213.231847 L11,170.540729 L35.4967369,170.540729 L35.4967369,176.138127 L17.4796335,176.138127 Z" id="path-7"></path>
        <filter x="-1.2%" y="-7.2%" width="102.4%" height="120.3%" filterUnits="objectBoundingBox" id="filter-8">
            <feOffset dx="0" dy="2" in="SourceAlpha" result="shadowOffsetOuter1"></feOffset>
            <feGaussianBlur stdDeviation="2" in="shadowOffsetOuter1" result="shadowBlurOuter1"></feGaussianBlur>
            <feColorMatrix values="0 0 0 0 0   0 0 0 0 0   0 0 0 0 0  0 0 0 0.5 0" type="matrix" in="shadowBlurOuter1"></feColorMatrix>
        </filter>
    </defs>
    <g stroke="none" stroke-width="1" fill="none" fill-rule="evenodd">
        <g id="Fill-1">
            <use fill="black" fill-opacity="1" filter="url(#filter-2)" xlink:href="#path-1"></use>
            <use fill="#FFFFFF" fill-rule="evenodd" xlink:href="#path-1"></use>
        </g>
        <g id="Fill-3">
            <use fill="black" fill-opacity="1" filter="url(#filter-4)" xlink:href="#path-3"></use>
            <use fill="#FFFFFF" fill-rule="evenodd" xlink:href="#path-3"></use>
        </g>
        <g id="Fill-5">
            <use fill="black" fill-opacity="1" filter="url(#filter-6)" xlink:href="#path-5"></use>
            <use fill="#FFFFFF" fill-rule="evenodd" xlink:href="#path-5"></use>
        </g>
        <g id="Fill-7">
            <use fill="black" fill-opacity="1" filter="url(#filter-8)" xlink:href="#path-7"></use>
            <use fill="#FFFFFF" fill-rule="evenodd" xlink:href="#path-7"></use>
        </g>
    </g>
</svg>
